<svg width="32" height="32" viewBox="0 0 32 32" fill="black" xmlns="http://www.w3.org/2000/svg">
  <path
    d="M31.9999 17.14C31.5181 17.1625 31.1641 17.292 30.938 17.5284C30.7118 17.7536 30.5987 18.0576 30.5987 18.4404C30.5987 18.7444 30.6479 19.3468 30.7462 20.2476C30.756 20.3376 30.7855 20.6304 30.8347 21.1258C30.8839 21.6099 30.9085 22.049 30.9085 22.4431C30.9085 23.4114 30.6528 24.1601 30.1415 24.6893C29.6302 25.2298 28.9468 25.5 28.0913 25.5H27.0293V23.1356H27.6045C27.9192 23.1356 28.1454 23.0511 28.283 22.8822C28.4207 22.7246 28.4895 22.4825 28.4895 22.156C28.4895 21.897 28.4502 21.3397 28.3715 20.484C28.283 19.3919 28.2388 18.6769 28.2388 18.3391C28.2388 17.7086 28.3666 17.1963 28.6223 16.8022C28.8878 16.3969 29.286 16.1323 29.817 16.0084V15.9747C29.286 15.8621 28.8878 15.6031 28.6223 15.1978C28.3666 14.7924 28.2388 14.2801 28.2388 13.6609C28.2388 13.3231 28.283 12.6081 28.3715 11.516C28.4502 10.6378 28.4895 10.0748 28.4895 9.82711C28.4895 9.50059 28.4207 9.25852 28.283 9.10089C28.1454 8.94326 27.9192 8.86444 27.6045 8.86444H27.0293V6.5H28.0913C28.9468 6.5 29.6302 6.77022 30.1415 7.31067C30.6528 7.83985 30.9085 8.58296 30.9085 9.54C30.9085 9.93407 30.8839 10.3788 30.8347 10.8742C30.7855 11.3584 30.756 11.6455 30.7462 11.7356C30.6479 12.6363 30.5987 13.2387 30.5987 13.5427C30.5987 13.948 30.7118 14.2633 30.938 14.4884C31.1641 14.7024 31.5181 14.8206 31.9999 14.8431V17.14Z" />
  <path
    d="M0 14.8431C0.481822 14.8206 0.835814 14.7024 1.06198 14.4884C1.28814 14.2633 1.40122 13.948 1.40122 13.5427C1.40122 13.2387 1.35205 12.6363 1.25372 11.7356C1.24389 11.6455 1.21439 11.3584 1.16522 10.8742C1.11606 10.3788 1.09148 9.93407 1.09148 9.54C1.09148 8.58296 1.34714 7.83985 1.85846 7.31067C2.36978 6.77022 3.05318 6.5 3.90866 6.5H4.97064V8.86444H4.3954C4.08074 8.86444 3.85458 8.94326 3.71692 9.10089C3.57925 9.25852 3.51042 9.50059 3.51042 9.82711C3.51042 10.0748 3.54975 10.6378 3.62842 11.516C3.71692 12.6081 3.76117 13.3231 3.76117 13.6609C3.76117 14.2801 3.62842 14.7924 3.36292 15.1978C3.10726 15.6031 2.71394 15.8621 2.18295 15.9747V16.0084C2.71394 16.1323 3.10726 16.3969 3.36292 16.8022C3.62842 17.1963 3.76117 17.7086 3.76117 18.3391C3.76117 18.6769 3.71692 19.3919 3.62842 20.484C3.54975 21.3397 3.51042 21.897 3.51042 22.156C3.51042 22.4825 3.57925 22.7246 3.71692 22.8822C3.85458 23.0511 4.08074 23.1356 4.3954 23.1356H4.97064V25.5H3.90866C3.05318 25.5 2.36978 25.2298 1.85846 24.6893C1.34714 24.1601 1.09148 23.4114 1.09148 22.4431C1.09148 22.049 1.11606 21.6099 1.16522 21.1258C1.21439 20.6304 1.24389 20.3376 1.25372 20.2476C1.35205 19.3468 1.40122 18.7444 1.40122 18.4404C1.40122 18.0576 1.28814 17.7536 1.06198 17.5284C0.835814 17.292 0.481822 17.1625 0 17.14V14.8431Z" />
  <path
    d="M17.3157 12.4111C18.3384 12.4111 19.1496 12.7658 19.7494 13.4751C20.3591 14.1844 20.6639 15.1696 20.6639 16.4307V21.9364H18.1565V16.8191C18.1565 16.2111 18.0139 15.7438 17.7287 15.4173C17.4534 15.0795 17.0699 14.9107 16.5782 14.9107C16.0866 14.9107 15.6982 15.0795 15.413 15.4173C15.1377 15.7438 15 16.2111 15 16.8191V21.9364H12.4926V16.8191C12.4926 16.2111 12.35 15.7438 12.0648 15.4173C11.7895 15.0795 11.406 14.9107 10.9144 14.9107C10.4227 14.9107 10.0343 15.0795 9.74915 15.4173C9.47382 15.7438 9.33616 16.2111 9.33616 16.8191V21.9364H6.81396V12.5124H9.33616V13.6947C9.59182 13.3006 9.92614 12.991 10.3391 12.7658C10.7521 12.5293 11.2192 12.4111 11.7404 12.4111C12.3598 12.4111 12.9105 12.5631 13.3923 12.8671C13.884 13.1711 14.2675 13.6046 14.5428 14.1675C14.828 13.6496 15.2164 13.2274 15.708 12.9009C16.1997 12.5744 16.7356 12.4111 17.3157 12.4111Z" />
  <path
    d="M23.6963 11.5329C23.2539 11.5329 22.89 11.3865 22.6049 11.0938C22.3295 10.7898 22.1919 10.4182 22.1919 9.9791C22.1919 9.52873 22.3295 9.15717 22.6049 8.86443C22.89 8.56043 23.2539 8.40843 23.6963 8.40843C24.129 8.40843 24.483 8.56043 24.7583 8.86443C25.0435 9.15717 25.1861 9.52873 25.1861 9.9791C25.1861 10.4182 25.0435 10.7898 24.7583 11.0938C24.483 11.3865 24.129 11.5329 23.6963 11.5329ZM24.9501 12.5124V21.9364H22.4279V12.5124H24.9501Z" />
</svg>